<mxfile host="app.diagrams.net" agent="Mozilla/5.0 (Windows NT 10.0; Win64; x64) AppleWebKit/537.36 (KHTML, like Gecko) Chrome/136.0.0.0 Safari/537.36" version="27.0.8">
  <diagram name="Страница — 1" id="lvqNyC6orvBcj1a7WuMk">
    <mxGraphModel dx="1042" dy="570" grid="1" gridSize="10" guides="1" tooltips="1" connect="1" arrows="1" fold="1" page="1" pageScale="1" pageWidth="827" pageHeight="1169" math="0" shadow="0">
      <root>
        <mxCell id="0" />
        <mxCell id="1" parent="0" />
        <mxCell id="J7HD5euf9rmGzoFkvlj1-8" value="" style="edgeStyle=orthogonalEdgeStyle;rounded=0;orthogonalLoop=1;jettySize=auto;html=1;" edge="1" parent="1" source="J7HD5euf9rmGzoFkvlj1-1" target="J7HD5euf9rmGzoFkvlj1-2">
          <mxGeometry relative="1" as="geometry" />
        </mxCell>
        <mxCell id="J7HD5euf9rmGzoFkvlj1-1" value="Создание начальной популяции: i = 0" style="rounded=0;whiteSpace=wrap;html=1;" vertex="1" parent="1">
          <mxGeometry x="400" y="80" width="160" height="50" as="geometry" />
        </mxCell>
        <mxCell id="J7HD5euf9rmGzoFkvlj1-11" style="edgeStyle=orthogonalEdgeStyle;rounded=0;orthogonalLoop=1;jettySize=auto;html=1;exitX=0.5;exitY=1;exitDx=0;exitDy=0;entryX=0.5;entryY=0;entryDx=0;entryDy=0;" edge="1" parent="1" source="J7HD5euf9rmGzoFkvlj1-2" target="J7HD5euf9rmGzoFkvlj1-4">
          <mxGeometry relative="1" as="geometry" />
        </mxCell>
        <mxCell id="J7HD5euf9rmGzoFkvlj1-2" value="Вычисление приспособленности&amp;nbsp;" style="rounded=0;whiteSpace=wrap;html=1;" vertex="1" parent="1">
          <mxGeometry x="200" y="80" width="140" height="50" as="geometry" />
        </mxCell>
        <mxCell id="J7HD5euf9rmGzoFkvlj1-13" style="edgeStyle=orthogonalEdgeStyle;rounded=0;orthogonalLoop=1;jettySize=auto;html=1;exitX=0.5;exitY=1;exitDx=0;exitDy=0;entryX=0.5;entryY=0;entryDx=0;entryDy=0;" edge="1" parent="1" source="J7HD5euf9rmGzoFkvlj1-4" target="J7HD5euf9rmGzoFkvlj1-5">
          <mxGeometry relative="1" as="geometry" />
        </mxCell>
        <mxCell id="J7HD5euf9rmGzoFkvlj1-4" value="Турнирный отбор&lt;span style=&quot;color: rgba(0, 0, 0, 0); font-family: monospace; font-size: 0px; text-align: start; text-wrap-mode: nowrap;&quot;&gt;%3CmxGraphModel%3E%3Croot%3E%3CmxCell%20id%3D%220%22%2F%3E%3CmxCell%20id%3D%221%22%20parent%3D%220%22%2F%3E%3CmxCell%20id%3D%222%22%20value%3D%22%D0%92%D1%8B%D1%87%D0%B8%D1%81%D0%BB%D0%B5%D0%BD%D0%B8%D0%B5%20%D0%BF%D1%80%D0%B8%D1%81%D0%BF%D0%BE%D1%81%D0%BE%D0%B1%D0%BB%D0%B5%D0%BD%D0%BD%D0%BE%D1%81%D1%82%D0%B8%26amp%3Bnbsp%3B%22%20style%3D%22rounded%3D0%3BwhiteSpace%3Dwrap%3Bhtml%3D1%3B%22%20vertex%3D%221%22%20parent%3D%221%22%3E%3CmxGeometry%20x%3D%22200%22%20y%3D%2280%22%20width%3D%22140%22%20height%3D%2250%22%20as%3D%22geometry%22%2F%3E%3C%2FmxCell%3E%3C%2Froot%3E%3C%2FmxGraphModel%3E&lt;/span&gt;" style="rounded=0;whiteSpace=wrap;html=1;" vertex="1" parent="1">
          <mxGeometry x="200" y="160" width="140" height="50" as="geometry" />
        </mxCell>
        <mxCell id="J7HD5euf9rmGzoFkvlj1-14" style="edgeStyle=orthogonalEdgeStyle;rounded=0;orthogonalLoop=1;jettySize=auto;html=1;exitX=0.5;exitY=1;exitDx=0;exitDy=0;entryX=0.5;entryY=0;entryDx=0;entryDy=0;" edge="1" parent="1" source="J7HD5euf9rmGzoFkvlj1-5" target="J7HD5euf9rmGzoFkvlj1-6">
          <mxGeometry relative="1" as="geometry" />
        </mxCell>
        <mxCell id="J7HD5euf9rmGzoFkvlj1-5" value="Кроссинговер" style="rounded=0;whiteSpace=wrap;html=1;" vertex="1" parent="1">
          <mxGeometry x="200" y="240" width="140" height="50" as="geometry" />
        </mxCell>
        <mxCell id="J7HD5euf9rmGzoFkvlj1-15" style="edgeStyle=orthogonalEdgeStyle;rounded=0;orthogonalLoop=1;jettySize=auto;html=1;exitX=1;exitY=0.5;exitDx=0;exitDy=0;entryX=0;entryY=0.5;entryDx=0;entryDy=0;" edge="1" parent="1" source="J7HD5euf9rmGzoFkvlj1-6" target="J7HD5euf9rmGzoFkvlj1-7">
          <mxGeometry relative="1" as="geometry" />
        </mxCell>
        <mxCell id="J7HD5euf9rmGzoFkvlj1-6" value="Мутация&amp;nbsp;" style="rounded=0;whiteSpace=wrap;html=1;" vertex="1" parent="1">
          <mxGeometry x="200" y="310" width="140" height="50" as="geometry" />
        </mxCell>
        <mxCell id="J7HD5euf9rmGzoFkvlj1-16" style="edgeStyle=orthogonalEdgeStyle;rounded=0;orthogonalLoop=1;jettySize=auto;html=1;exitX=0.5;exitY=0;exitDx=0;exitDy=0;" edge="1" parent="1" source="J7HD5euf9rmGzoFkvlj1-7">
          <mxGeometry relative="1" as="geometry">
            <mxPoint x="360" y="106" as="targetPoint" />
          </mxGeometry>
        </mxCell>
        <mxCell id="J7HD5euf9rmGzoFkvlj1-20" style="edgeStyle=orthogonalEdgeStyle;rounded=0;orthogonalLoop=1;jettySize=auto;html=1;exitX=0.5;exitY=1;exitDx=0;exitDy=0;" edge="1" parent="1" source="J7HD5euf9rmGzoFkvlj1-7">
          <mxGeometry relative="1" as="geometry">
            <mxPoint x="480" y="400" as="targetPoint" />
          </mxGeometry>
        </mxCell>
        <mxCell id="J7HD5euf9rmGzoFkvlj1-7" value="i &amp;lt; num_generations" style="rhombus;whiteSpace=wrap;html=1;" vertex="1" parent="1">
          <mxGeometry x="400" y="307.5" width="160" height="55" as="geometry" />
        </mxCell>
        <mxCell id="J7HD5euf9rmGzoFkvlj1-17" value="Нет" style="text;html=1;align=center;verticalAlign=middle;resizable=0;points=[];autosize=1;strokeColor=none;fillColor=none;" vertex="1" parent="1">
          <mxGeometry x="440" y="277.5" width="40" height="30" as="geometry" />
        </mxCell>
        <mxCell id="J7HD5euf9rmGzoFkvlj1-18" value="" style="endArrow=classic;html=1;rounded=0;entryX=1;entryY=0.5;entryDx=0;entryDy=0;" edge="1" parent="1" target="J7HD5euf9rmGzoFkvlj1-1">
          <mxGeometry width="50" height="50" relative="1" as="geometry">
            <mxPoint x="610" y="105" as="sourcePoint" />
            <mxPoint x="620" y="90" as="targetPoint" />
          </mxGeometry>
        </mxCell>
        <mxCell id="J7HD5euf9rmGzoFkvlj1-19" value="Вход" style="edgeLabel;html=1;align=center;verticalAlign=middle;resizable=0;points=[];" vertex="1" connectable="0" parent="J7HD5euf9rmGzoFkvlj1-18">
          <mxGeometry x="-0.248" y="-4" relative="1" as="geometry">
            <mxPoint x="-3" y="-5" as="offset" />
          </mxGeometry>
        </mxCell>
        <mxCell id="J7HD5euf9rmGzoFkvlj1-21" value="Да" style="text;html=1;align=center;verticalAlign=middle;resizable=0;points=[];autosize=1;strokeColor=none;fillColor=none;" vertex="1" parent="1">
          <mxGeometry x="440" y="368" width="40" height="30" as="geometry" />
        </mxCell>
        <mxCell id="J7HD5euf9rmGzoFkvlj1-22" value="Выход" style="text;html=1;align=center;verticalAlign=middle;resizable=0;points=[];autosize=1;strokeColor=none;fillColor=none;" vertex="1" parent="1">
          <mxGeometry x="480" y="368" width="60" height="30" as="geometry" />
        </mxCell>
      </root>
    </mxGraphModel>
  </diagram>
</mxfile>
